<mxfile host="app.diagrams.net" agent="Mozilla/5.0 (Windows NT 10.0; Win64; x64) AppleWebKit/537.36 (KHTML, like Gecko) Chrome/141.0.0.0 Safari/537.36" version="28.2.7">
  <diagram name="Страница — 1" id="x816-VWuvk2yTvuJiwYm">
    <mxGraphModel dx="1271" dy="838" grid="1" gridSize="10" guides="1" tooltips="1" connect="1" arrows="1" fold="1" page="1" pageScale="1" pageWidth="827" pageHeight="1169" math="0" shadow="0">
      <root>
        <mxCell id="0" />
        <mxCell id="1" parent="0" />
        <mxCell id="hOaz9AUklAwyaaQpBe87-1" value="users" style="swimlane;fontStyle=0;childLayout=stackLayout;horizontal=1;startSize=26;fillColor=none;horizontalStack=0;resizeParent=1;resizeParentMax=0;resizeLast=0;collapsible=1;marginBottom=0;html=1;" vertex="1" parent="1">
          <mxGeometry x="90" y="40" width="140" height="270" as="geometry" />
        </mxCell>
        <mxCell id="hOaz9AUklAwyaaQpBe87-2" value="id" style="text;strokeColor=none;fillColor=none;align=left;verticalAlign=top;spacingLeft=4;spacingRight=4;overflow=hidden;rotatable=0;points=[[0,0.5],[1,0.5]];portConstraint=eastwest;whiteSpace=wrap;html=1;" vertex="1" parent="hOaz9AUklAwyaaQpBe87-1">
          <mxGeometry y="26" width="140" height="26" as="geometry" />
        </mxCell>
        <mxCell id="hOaz9AUklAwyaaQpBe87-3" value="first_name" style="text;strokeColor=none;fillColor=none;align=left;verticalAlign=top;spacingLeft=4;spacingRight=4;overflow=hidden;rotatable=0;points=[[0,0.5],[1,0.5]];portConstraint=eastwest;whiteSpace=wrap;html=1;" vertex="1" parent="hOaz9AUklAwyaaQpBe87-1">
          <mxGeometry y="52" width="140" height="26" as="geometry" />
        </mxCell>
        <mxCell id="hOaz9AUklAwyaaQpBe87-4" value="last_name" style="text;strokeColor=none;fillColor=none;align=left;verticalAlign=top;spacingLeft=4;spacingRight=4;overflow=hidden;rotatable=0;points=[[0,0.5],[1,0.5]];portConstraint=eastwest;whiteSpace=wrap;html=1;" vertex="1" parent="hOaz9AUklAwyaaQpBe87-1">
          <mxGeometry y="78" width="140" height="32" as="geometry" />
        </mxCell>
        <mxCell id="hOaz9AUklAwyaaQpBe87-49" value="patronymic" style="text;strokeColor=none;fillColor=none;align=left;verticalAlign=top;spacingLeft=4;spacingRight=4;overflow=hidden;rotatable=0;points=[[0,0.5],[1,0.5]];portConstraint=eastwest;whiteSpace=wrap;html=1;" vertex="1" parent="hOaz9AUklAwyaaQpBe87-1">
          <mxGeometry y="110" width="140" height="32" as="geometry" />
        </mxCell>
        <mxCell id="hOaz9AUklAwyaaQpBe87-5" value="patronymic" style="text;strokeColor=none;fillColor=none;align=left;verticalAlign=top;spacingLeft=4;spacingRight=4;overflow=hidden;rotatable=0;points=[[0,0.5],[1,0.5]];portConstraint=eastwest;whiteSpace=wrap;html=1;" vertex="1" parent="hOaz9AUklAwyaaQpBe87-1">
          <mxGeometry y="142" width="140" height="32" as="geometry" />
        </mxCell>
        <mxCell id="hOaz9AUklAwyaaQpBe87-6" value="email" style="text;strokeColor=none;fillColor=none;align=left;verticalAlign=top;spacingLeft=4;spacingRight=4;overflow=hidden;rotatable=0;points=[[0,0.5],[1,0.5]];portConstraint=eastwest;whiteSpace=wrap;html=1;" vertex="1" parent="hOaz9AUklAwyaaQpBe87-1">
          <mxGeometry y="174" width="140" height="32" as="geometry" />
        </mxCell>
        <mxCell id="hOaz9AUklAwyaaQpBe87-7" value="password" style="text;strokeColor=none;fillColor=none;align=left;verticalAlign=top;spacingLeft=4;spacingRight=4;overflow=hidden;rotatable=0;points=[[0,0.5],[1,0.5]];portConstraint=eastwest;whiteSpace=wrap;html=1;" vertex="1" parent="hOaz9AUklAwyaaQpBe87-1">
          <mxGeometry y="206" width="140" height="32" as="geometry" />
        </mxCell>
        <mxCell id="hOaz9AUklAwyaaQpBe87-8" value="birth_date" style="text;strokeColor=none;fillColor=none;align=left;verticalAlign=top;spacingLeft=4;spacingRight=4;overflow=hidden;rotatable=0;points=[[0,0.5],[1,0.5]];portConstraint=eastwest;whiteSpace=wrap;html=1;" vertex="1" parent="hOaz9AUklAwyaaQpBe87-1">
          <mxGeometry y="238" width="140" height="32" as="geometry" />
        </mxCell>
        <mxCell id="hOaz9AUklAwyaaQpBe87-9" value="crew" style="swimlane;fontStyle=0;childLayout=stackLayout;horizontal=1;startSize=26;fillColor=none;horizontalStack=0;resizeParent=1;resizeParentMax=0;resizeLast=0;collapsible=1;marginBottom=0;html=1;" vertex="1" parent="1">
          <mxGeometry x="450" y="520" width="140" height="148" as="geometry" />
        </mxCell>
        <mxCell id="hOaz9AUklAwyaaQpBe87-10" value="id" style="text;strokeColor=none;fillColor=none;align=left;verticalAlign=top;spacingLeft=4;spacingRight=4;overflow=hidden;rotatable=0;points=[[0,0.5],[1,0.5]];portConstraint=eastwest;whiteSpace=wrap;html=1;" vertex="1" parent="hOaz9AUklAwyaaQpBe87-9">
          <mxGeometry y="26" width="140" height="26" as="geometry" />
        </mxCell>
        <mxCell id="hOaz9AUklAwyaaQpBe87-11" value="name" style="text;strokeColor=none;fillColor=none;align=left;verticalAlign=top;spacingLeft=4;spacingRight=4;overflow=hidden;rotatable=0;points=[[0,0.5],[1,0.5]];portConstraint=eastwest;whiteSpace=wrap;html=1;" vertex="1" parent="hOaz9AUklAwyaaQpBe87-9">
          <mxGeometry y="52" width="140" height="32" as="geometry" />
        </mxCell>
        <mxCell id="hOaz9AUklAwyaaQpBe87-12" value="role" style="text;strokeColor=none;fillColor=none;align=left;verticalAlign=top;spacingLeft=4;spacingRight=4;overflow=hidden;rotatable=0;points=[[0,0.5],[1,0.5]];portConstraint=eastwest;whiteSpace=wrap;html=1;" vertex="1" parent="hOaz9AUklAwyaaQpBe87-9">
          <mxGeometry y="84" width="140" height="32" as="geometry" />
        </mxCell>
        <mxCell id="hOaz9AUklAwyaaQpBe87-13" value="mission_id" style="text;strokeColor=none;fillColor=none;align=left;verticalAlign=top;spacingLeft=4;spacingRight=4;overflow=hidden;rotatable=0;points=[[0,0.5],[1,0.5]];portConstraint=eastwest;whiteSpace=wrap;html=1;" vertex="1" parent="hOaz9AUklAwyaaQpBe87-9">
          <mxGeometry y="116" width="140" height="32" as="geometry" />
        </mxCell>
        <mxCell id="hOaz9AUklAwyaaQpBe87-15" value="missions" style="swimlane;fontStyle=0;childLayout=stackLayout;horizontal=1;startSize=26;fillColor=none;horizontalStack=0;resizeParent=1;resizeParentMax=0;resizeLast=0;collapsible=1;marginBottom=0;html=1;" vertex="1" parent="1">
          <mxGeometry x="450" y="40" width="150" height="430" as="geometry" />
        </mxCell>
        <mxCell id="hOaz9AUklAwyaaQpBe87-16" value="id" style="text;strokeColor=none;fillColor=none;align=left;verticalAlign=top;spacingLeft=4;spacingRight=4;overflow=hidden;rotatable=0;points=[[0,0.5],[1,0.5]];portConstraint=eastwest;whiteSpace=wrap;html=1;" vertex="1" parent="hOaz9AUklAwyaaQpBe87-15">
          <mxGeometry y="26" width="150" height="26" as="geometry" />
        </mxCell>
        <mxCell id="hOaz9AUklAwyaaQpBe87-17" value="name" style="text;strokeColor=none;fillColor=none;align=left;verticalAlign=top;spacingLeft=4;spacingRight=4;overflow=hidden;rotatable=0;points=[[0,0.5],[1,0.5]];portConstraint=eastwest;whiteSpace=wrap;html=1;" vertex="1" parent="hOaz9AUklAwyaaQpBe87-15">
          <mxGeometry y="52" width="150" height="26" as="geometry" />
        </mxCell>
        <mxCell id="hOaz9AUklAwyaaQpBe87-18" value="launch_date" style="text;strokeColor=none;fillColor=none;align=left;verticalAlign=top;spacingLeft=4;spacingRight=4;overflow=hidden;rotatable=0;points=[[0,0.5],[1,0.5]];portConstraint=eastwest;whiteSpace=wrap;html=1;" vertex="1" parent="hOaz9AUklAwyaaQpBe87-15">
          <mxGeometry y="78" width="150" height="32" as="geometry" />
        </mxCell>
        <mxCell id="hOaz9AUklAwyaaQpBe87-19" value="launch_site_name" style="text;strokeColor=none;fillColor=none;align=left;verticalAlign=top;spacingLeft=4;spacingRight=4;overflow=hidden;rotatable=0;points=[[0,0.5],[1,0.5]];portConstraint=eastwest;whiteSpace=wrap;html=1;" vertex="1" parent="hOaz9AUklAwyaaQpBe87-15">
          <mxGeometry y="110" width="150" height="32" as="geometry" />
        </mxCell>
        <mxCell id="hOaz9AUklAwyaaQpBe87-20" value="launch_latitude" style="text;strokeColor=none;fillColor=none;align=left;verticalAlign=top;spacingLeft=4;spacingRight=4;overflow=hidden;rotatable=0;points=[[0,0.5],[1,0.5]];portConstraint=eastwest;whiteSpace=wrap;html=1;" vertex="1" parent="hOaz9AUklAwyaaQpBe87-15">
          <mxGeometry y="142" width="150" height="32" as="geometry" />
        </mxCell>
        <mxCell id="hOaz9AUklAwyaaQpBe87-21" value="launch_longitude" style="text;strokeColor=none;fillColor=none;align=left;verticalAlign=top;spacingLeft=4;spacingRight=4;overflow=hidden;rotatable=0;points=[[0,0.5],[1,0.5]];portConstraint=eastwest;whiteSpace=wrap;html=1;" vertex="1" parent="hOaz9AUklAwyaaQpBe87-15">
          <mxGeometry y="174" width="150" height="32" as="geometry" />
        </mxCell>
        <mxCell id="hOaz9AUklAwyaaQpBe87-22" value="landing_date" style="text;strokeColor=none;fillColor=none;align=left;verticalAlign=top;spacingLeft=4;spacingRight=4;overflow=hidden;rotatable=0;points=[[0,0.5],[1,0.5]];portConstraint=eastwest;whiteSpace=wrap;html=1;" vertex="1" parent="hOaz9AUklAwyaaQpBe87-15">
          <mxGeometry y="206" width="150" height="32" as="geometry" />
        </mxCell>
        <mxCell id="hOaz9AUklAwyaaQpBe87-23" value="landing_site_name" style="text;strokeColor=none;fillColor=none;align=left;verticalAlign=top;spacingLeft=4;spacingRight=4;overflow=hidden;rotatable=0;points=[[0,0.5],[1,0.5]];portConstraint=eastwest;whiteSpace=wrap;html=1;" vertex="1" parent="hOaz9AUklAwyaaQpBe87-15">
          <mxGeometry y="238" width="150" height="32" as="geometry" />
        </mxCell>
        <mxCell id="hOaz9AUklAwyaaQpBe87-24" value="landing_latitude" style="text;strokeColor=none;fillColor=none;align=left;verticalAlign=top;spacingLeft=4;spacingRight=4;overflow=hidden;rotatable=0;points=[[0,0.5],[1,0.5]];portConstraint=eastwest;whiteSpace=wrap;html=1;" vertex="1" parent="hOaz9AUklAwyaaQpBe87-15">
          <mxGeometry y="270" width="150" height="32" as="geometry" />
        </mxCell>
        <mxCell id="hOaz9AUklAwyaaQpBe87-25" value="landing_longitude" style="text;strokeColor=none;fillColor=none;align=left;verticalAlign=top;spacingLeft=4;spacingRight=4;overflow=hidden;rotatable=0;points=[[0,0.5],[1,0.5]];portConstraint=eastwest;whiteSpace=wrap;html=1;" vertex="1" parent="hOaz9AUklAwyaaQpBe87-15">
          <mxGeometry y="302" width="150" height="32" as="geometry" />
        </mxCell>
        <mxCell id="hOaz9AUklAwyaaQpBe87-26" value="command_module" style="text;strokeColor=none;fillColor=none;align=left;verticalAlign=top;spacingLeft=4;spacingRight=4;overflow=hidden;rotatable=0;points=[[0,0.5],[1,0.5]];portConstraint=eastwest;whiteSpace=wrap;html=1;" vertex="1" parent="hOaz9AUklAwyaaQpBe87-15">
          <mxGeometry y="334" width="150" height="32" as="geometry" />
        </mxCell>
        <mxCell id="hOaz9AUklAwyaaQpBe87-27" value="lunar_module" style="text;strokeColor=none;fillColor=none;align=left;verticalAlign=top;spacingLeft=4;spacingRight=4;overflow=hidden;rotatable=0;points=[[0,0.5],[1,0.5]];portConstraint=eastwest;whiteSpace=wrap;html=1;" vertex="1" parent="hOaz9AUklAwyaaQpBe87-15">
          <mxGeometry y="366" width="150" height="32" as="geometry" />
        </mxCell>
        <mxCell id="hOaz9AUklAwyaaQpBe87-28" value="user_id" style="text;strokeColor=none;fillColor=none;align=left;verticalAlign=top;spacingLeft=4;spacingRight=4;overflow=hidden;rotatable=0;points=[[0,0.5],[1,0.5]];portConstraint=eastwest;whiteSpace=wrap;html=1;" vertex="1" parent="hOaz9AUklAwyaaQpBe87-15">
          <mxGeometry y="398" width="150" height="32" as="geometry" />
        </mxCell>
        <mxCell id="hOaz9AUklAwyaaQpBe87-29" value="flights" style="swimlane;fontStyle=0;childLayout=stackLayout;horizontal=1;startSize=26;fillColor=none;horizontalStack=0;resizeParent=1;resizeParentMax=0;resizeLast=0;collapsible=1;marginBottom=0;html=1;" vertex="1" parent="1">
          <mxGeometry x="90" y="520" width="140" height="206" as="geometry" />
        </mxCell>
        <mxCell id="hOaz9AUklAwyaaQpBe87-30" value="id" style="text;strokeColor=none;fillColor=none;align=left;verticalAlign=top;spacingLeft=4;spacingRight=4;overflow=hidden;rotatable=0;points=[[0,0.5],[1,0.5]];portConstraint=eastwest;whiteSpace=wrap;html=1;" vertex="1" parent="hOaz9AUklAwyaaQpBe87-29">
          <mxGeometry y="26" width="140" height="26" as="geometry" />
        </mxCell>
        <mxCell id="hOaz9AUklAwyaaQpBe87-31" value="flight_number" style="text;strokeColor=none;fillColor=none;align=left;verticalAlign=top;spacingLeft=4;spacingRight=4;overflow=hidden;rotatable=0;points=[[0,0.5],[1,0.5]];portConstraint=eastwest;whiteSpace=wrap;html=1;" vertex="1" parent="hOaz9AUklAwyaaQpBe87-29">
          <mxGeometry y="52" width="140" height="26" as="geometry" />
        </mxCell>
        <mxCell id="hOaz9AUklAwyaaQpBe87-32" value="destination" style="text;strokeColor=none;fillColor=none;align=left;verticalAlign=top;spacingLeft=4;spacingRight=4;overflow=hidden;rotatable=0;points=[[0,0.5],[1,0.5]];portConstraint=eastwest;whiteSpace=wrap;html=1;" vertex="1" parent="hOaz9AUklAwyaaQpBe87-29">
          <mxGeometry y="78" width="140" height="32" as="geometry" />
        </mxCell>
        <mxCell id="hOaz9AUklAwyaaQpBe87-33" value="launch_date" style="text;strokeColor=none;fillColor=none;align=left;verticalAlign=top;spacingLeft=4;spacingRight=4;overflow=hidden;rotatable=0;points=[[0,0.5],[1,0.5]];portConstraint=eastwest;whiteSpace=wrap;html=1;" vertex="1" parent="hOaz9AUklAwyaaQpBe87-29">
          <mxGeometry y="110" width="140" height="32" as="geometry" />
        </mxCell>
        <mxCell id="hOaz9AUklAwyaaQpBe87-34" value="seats_available" style="text;strokeColor=none;fillColor=none;align=left;verticalAlign=top;spacingLeft=4;spacingRight=4;overflow=hidden;rotatable=0;points=[[0,0.5],[1,0.5]];portConstraint=eastwest;whiteSpace=wrap;html=1;" vertex="1" parent="hOaz9AUklAwyaaQpBe87-29">
          <mxGeometry y="142" width="140" height="32" as="geometry" />
        </mxCell>
        <mxCell id="hOaz9AUklAwyaaQpBe87-35" value="user_id" style="text;strokeColor=none;fillColor=none;align=left;verticalAlign=top;spacingLeft=4;spacingRight=4;overflow=hidden;rotatable=0;points=[[0,0.5],[1,0.5]];portConstraint=eastwest;whiteSpace=wrap;html=1;" vertex="1" parent="hOaz9AUklAwyaaQpBe87-29">
          <mxGeometry y="174" width="140" height="32" as="geometry" />
        </mxCell>
        <mxCell id="hOaz9AUklAwyaaQpBe87-39" value="flight_user" style="swimlane;fontStyle=0;childLayout=stackLayout;horizontal=1;startSize=26;fillColor=none;horizontalStack=0;resizeParent=1;resizeParentMax=0;resizeLast=0;collapsible=1;marginBottom=0;html=1;" vertex="1" parent="1">
          <mxGeometry x="90" y="360" width="140" height="110" as="geometry" />
        </mxCell>
        <mxCell id="hOaz9AUklAwyaaQpBe87-40" value="id" style="text;strokeColor=none;fillColor=none;align=left;verticalAlign=top;spacingLeft=4;spacingRight=4;overflow=hidden;rotatable=0;points=[[0,0.5],[1,0.5]];portConstraint=eastwest;whiteSpace=wrap;html=1;" vertex="1" parent="hOaz9AUklAwyaaQpBe87-39">
          <mxGeometry y="26" width="140" height="26" as="geometry" />
        </mxCell>
        <mxCell id="hOaz9AUklAwyaaQpBe87-41" value="user_id" style="text;strokeColor=none;fillColor=none;align=left;verticalAlign=top;spacingLeft=4;spacingRight=4;overflow=hidden;rotatable=0;points=[[0,0.5],[1,0.5]];portConstraint=eastwest;whiteSpace=wrap;html=1;" vertex="1" parent="hOaz9AUklAwyaaQpBe87-39">
          <mxGeometry y="52" width="140" height="26" as="geometry" />
        </mxCell>
        <mxCell id="hOaz9AUklAwyaaQpBe87-42" value="&lt;span style=&quot;text-align: center; text-wrap-mode: nowrap;&quot;&gt;flight_id&lt;/span&gt;" style="text;strokeColor=none;fillColor=none;align=left;verticalAlign=top;spacingLeft=4;spacingRight=4;overflow=hidden;rotatable=0;points=[[0,0.5],[1,0.5]];portConstraint=eastwest;whiteSpace=wrap;html=1;" vertex="1" parent="hOaz9AUklAwyaaQpBe87-39">
          <mxGeometry y="78" width="140" height="32" as="geometry" />
        </mxCell>
        <mxCell id="hOaz9AUklAwyaaQpBe87-50" style="edgeStyle=orthogonalEdgeStyle;rounded=0;orthogonalLoop=1;jettySize=auto;html=1;entryX=1;entryY=0.5;entryDx=0;entryDy=0;" edge="1" parent="1" source="hOaz9AUklAwyaaQpBe87-28" target="hOaz9AUklAwyaaQpBe87-2">
          <mxGeometry relative="1" as="geometry" />
        </mxCell>
        <mxCell id="hOaz9AUklAwyaaQpBe87-52" style="edgeStyle=orthogonalEdgeStyle;rounded=0;orthogonalLoop=1;jettySize=auto;html=1;entryX=1;entryY=0.5;entryDx=0;entryDy=0;" edge="1" parent="1" source="hOaz9AUklAwyaaQpBe87-13" target="hOaz9AUklAwyaaQpBe87-16">
          <mxGeometry relative="1" as="geometry" />
        </mxCell>
        <mxCell id="hOaz9AUklAwyaaQpBe87-53" style="edgeStyle=orthogonalEdgeStyle;rounded=0;orthogonalLoop=1;jettySize=auto;html=1;entryX=0;entryY=0.5;entryDx=0;entryDy=0;" edge="1" parent="1" source="hOaz9AUklAwyaaQpBe87-35" target="hOaz9AUklAwyaaQpBe87-2">
          <mxGeometry relative="1" as="geometry" />
        </mxCell>
        <mxCell id="hOaz9AUklAwyaaQpBe87-54" style="edgeStyle=orthogonalEdgeStyle;rounded=0;orthogonalLoop=1;jettySize=auto;html=1;exitX=0;exitY=0.5;exitDx=0;exitDy=0;entryX=0;entryY=0.5;entryDx=0;entryDy=0;" edge="1" parent="1" source="hOaz9AUklAwyaaQpBe87-41" target="hOaz9AUklAwyaaQpBe87-2">
          <mxGeometry relative="1" as="geometry" />
        </mxCell>
        <mxCell id="hOaz9AUklAwyaaQpBe87-55" style="edgeStyle=orthogonalEdgeStyle;rounded=0;orthogonalLoop=1;jettySize=auto;html=1;entryX=0;entryY=0.5;entryDx=0;entryDy=0;" edge="1" parent="1" source="hOaz9AUklAwyaaQpBe87-42" target="hOaz9AUklAwyaaQpBe87-30">
          <mxGeometry relative="1" as="geometry" />
        </mxCell>
      </root>
    </mxGraphModel>
  </diagram>
</mxfile>
